<svg width="588" height="560" viewBox="0 0 588 560" fill="none" xmlns="http://www.w3.org/2000/svg">
<path fill-rule="evenodd" clip-rule="evenodd" d="M292.564 11.3937C355.687 2.19545 431.657 -13.335 478.301 30.1776C525.17 73.899 491.853 153.684 510.75 214.93C529.181 274.663 591.649 319.069 586.664 381.382C581.302 448.422 545.001 520.988 484.003 549.315C423.883 577.232 357.187 532.706 292.564 517.954C244.679 507.023 197.929 499.251 155.593 474.348C109.057 446.974 63.342 416.279 38.3538 368.421C10.3378 314.763 -11.42 250.668 9.06421 193.708C29.392 137.183 91.8671 111.617 142.391 79.1265C189.737 48.6789 236.861 19.5107 292.564 11.3937Z" stroke="#007918" stroke-width="2" stroke-dasharray="2 2"/>
</svg>
