<svg width="831" height="371" viewBox="0 0 831 371" fill="none" xmlns="http://www.w3.org/2000/svg">
<path fill-rule="evenodd" clip-rule="evenodd" d="M570.446 48.4306C662.294 84.0204 776.32 128.758 816.725 210.605C857.271 292.739 792.786 358.436 754.26 420.774C725.051 468.035 662.509 483.236 623.474 523.294C570.363 577.796 572.932 685.082 485.566 696.509C398.2 707.936 293.392 639.617 209.762 577.405C129.403 517.628 66.6709 439.999 30.6067 358.071C-3.48243 280.629 -6.80062 202.695 15.7303 136.617C36.5351 75.6014 83.1408 26.7957 150.474 6.52658C210.717 -11.6082 288.182 26.1934 359.06 33.2655C431.758 40.5191 497.274 20.0773 570.446 48.4306Z" stroke="#38FF58" stroke-width="2" stroke-dasharray="4 4"/>
</svg>
