<svg width="689" height="561" viewBox="0 0 689 561" fill="none" xmlns="http://www.w3.org/2000/svg">
<path fill-rule="evenodd" clip-rule="evenodd" d="M326.001 45.6847C380.133 56.0562 432.518 59.4022 483.581 80.1494C551.272 107.653 636.377 120.349 669.744 185.35C703.695 251.488 684.863 336.924 648.75 401.907C615.638 461.49 547.173 487.464 485.599 516.706C434.926 540.771 382.032 552.483 326.001 555.182C267.075 558.02 199.589 571.067 154.828 532.638C110.421 494.513 131.928 421.27 107.876 367.912C78.9102 303.652 -0.853185 261.912 1.03288 191.45C3.00399 117.812 50.2435 40.1511 117.457 10.0023C183.419 -19.5853 254.998 32.081 326.001 45.6847Z" stroke="black" stroke-width="2" stroke-dasharray="2 2"/>
</svg>
