<svg width="447" height="559" viewBox="0 0 447 559" fill="none" xmlns="http://www.w3.org/2000/svg">
<path fill-rule="evenodd" clip-rule="evenodd" d="M224.57 11.3876C176.631 2.19475 118.935 -13.3267 83.511 30.1606C47.9167 73.8566 73.2193 153.595 58.8676 214.805C44.8705 274.503 -2.57122 318.884 1.21423 381.16C5.28691 448.162 32.8554 520.685 79.1813 548.995C124.839 576.897 175.492 532.396 224.57 517.653C260.937 506.728 296.442 498.961 328.594 474.072C363.935 446.715 398.654 416.038 417.631 368.207C438.908 314.58 455.432 250.523 439.876 193.596C424.438 137.103 376.991 111.553 338.62 79.081C302.663 48.6511 266.874 19.4999 224.57 11.3876Z" stroke="#007918" stroke-width="2" stroke-dasharray="2 2"/>
</svg>
